<?xml version="1.0" encoding="utf-8"?>
<!-- Generator: Adobe Illustrator 22.0.0, SVG Export Plug-In . SVG Version: 6.00 Build 0)  -->
<svg version="1.1" id="Capa_1" xmlns="http://www.w3.org/2000/svg" xmlns:xlink="http://www.w3.org/1999/xlink" x="0px" y="0px"
	 viewBox="0 0 800 800" style="enable-background:new 0 0 800 800;" xml:space="preserve">
<style type="text/css">
	.st0{fill:#1A8772;}
	.st1{fill:#B7E576;}
	.st2{fill:#54C8E7;}
	.st3{fill:#20C9AF;}
	.st4{fill:#919295;}
</style>
<g>
	<g>
		<path class="st0" d="M552.8,252.5l25.2-5.8c-18.6-81-91.3-141.7-177.9-141.7l-0.1,25.9C474.4,130.9,536.8,182.9,552.8,252.5z"/>
		<path class="st1" d="M556.8,287.6c0,18.8-3.3,36.8-9.4,53.5l24.3,8.9c7.1-19.5,11-40.5,11-62.4c0-14.1-1.6-27.8-4.6-40.9
			l-25.2,5.8C555.4,263.8,556.8,275.5,556.8,287.6z"/>
		<path class="st2" d="M243.2,287.6c0-45.2,19.2-86,49.9-114.6l-17.6-19c-35.8,33.4-58.2,80.9-58.2,133.6c0,14.1,1.6,27.8,4.6,41
			l25.2-5.8C244.6,311.5,243.2,299.7,243.2,287.6z"/>
		<path class="st2" d="M571.7,350l-24.3-8.9c-11.1,30.4-31.2,56.4-57.2,74.7l14.8,21.2C535.2,415.7,558.8,385.4,571.7,350z"/>
		<path class="st3" d="M400,444.4c-74.3,0-136.8-52-152.8-121.6l-25.2,5.8c18.7,81,91.4,141.6,178,141.6c39,0,75.2-12.3,104.9-33.2
			l-14.8-21.2C464.6,433.8,433.5,444.4,400,444.4z"/>
		<path class="st3" d="M400,131C400,131,400,131,400,131l0.1-26c0,0-0.1-0.1-0.1-0.1c-48,0-91.8,18.6-124.5,49.1l17.6,19.1
			C321.2,147,358.7,131,400,131z"/>
	</g>
	<g>
		<g>
			<g>
				<path class="st4" d="M439,299.9l2.2,31.7l17.6,28c2,3.2,6.4,4.2,9.7,2.2l0.8-0.5c3.2-2,4.2-6.4,2.2-9.7L439,299.9z"/>
				<path class="st4" d="M492.3,214.5l-0.5-0.8c-1.7-3.4-6-5-9.4-3.3L435.2,234h33.6l20.3-10.2C492.6,222.1,494,218,492.3,214.5z"/>
				<path class="st4" d="M512.6,246.9c0,0-95.4-0.2-98.3,0.1c-3.7,0.4-6.5,2.9-6.2,6.8c0,0,9.3,134.4,9.3,134.4
					c0.1,1.6,0.9,3.4,2,4.5c1.3,1.3,3,1.9,4.8,2c1.7,0.1,3.7-0.1,5.1-1.1c1.3-0.8,2.3-2.2,2.7-3.6c0.2-0.8,0.4-1.8,0.3-2.6
					l-8.2-118.8c-0.2-2.3,0.7-4.2,1.5-5c2-2.2,5.1-2.6,6.3-2.6c0,0,74.7,0,74.8,0h5.9c4.1,0,7.4-2.4,7.4-6.5v-0.2
					C520,250.3,516.7,246.9,512.6,246.9z"/>
			</g>
			<g>
				<path class="st4" d="M361.1,299.9l-2.2,31.7l-17.6,28c-2,3.2-6.4,4.2-9.7,2.2l-0.8-0.5c-3.2-2-4.2-6.4-2.2-9.7L361.1,299.9z"/>
				<path class="st4" d="M307.7,214.5l0.5-0.8c1.7-3.4,6-5,9.4-3.3l47.2,23.7h-33.6l-20.3-10.2C307.4,222.1,306,218,307.7,214.5z"/>
				<path class="st4" d="M287.4,246.9c0,0,95.4-0.2,98.4,0.1c3.7,0.4,6.5,2.9,6.2,6.8c0,0-9.3,134.4-9.3,134.4
					c-0.1,1.6-0.9,3.4-2,4.5c-1.3,1.3-3,1.9-4.8,2c-1.7,0.1-3.7-0.1-5.1-1.1c-1.3-0.8-2.3-2.2-2.7-3.6c-0.2-0.8-0.4-1.8-0.3-2.6
					l8.2-118.8c0.2-2.3-0.7-4.2-1.5-5c-2-2.2-5.1-2.6-6.3-2.6c0,0-74.7,0-74.8,0h-5.9c-4.1,0-7.4-2.4-7.4-6.5v-0.2
					C280,250.3,283.3,246.9,287.4,246.9z"/>
			</g>
		</g>
		
			<ellipse transform="matrix(0.2087 -0.978 0.978 0.2087 118.221 551.0158)" class="st4" cx="399.6" cy="202.4" rx="22.2" ry="22.2"/>
	</g>
	<g>
		<path class="st4" d="M144.1,594.5c-5.1-5-11.4-9.2-18.5-12c-7.2-2.8-15.3-4.5-24-4.5H70.3v117h31.3c8.5,0,16.4-1.3,23.6-4.4
			c7.2-3,13.5-7.2,18.6-12.4c5.2-5.3,9.3-11.6,12.2-18.9c2.9-7.3,4.4-15.2,4.4-23.6c0-8.5-1.5-16.3-4.3-23.3
			C153.3,605.5,149.3,599.5,144.1,594.5z M143.5,655c-2.2,5.4-5.3,10.1-9.3,14.1c-4,3.9-8.8,7.2-14.3,9.5
			c-5.5,2.2-11.6,3.5-18.3,3.5H84.3v-90h17.3c6.5,0,12.6,1.3,18.1,3.6c5.5,2.3,10.4,5.5,14.3,9.5c4,4,7.1,8.9,9.4,14.4
			c2.2,5.5,3.3,11.6,3.3,17.9C146.8,643.7,145.7,649.6,143.5,655z"/>
		<polygon class="st4" points="194.6,570 190.4,600 197.7,600 207.4,570 		"/>
		<path class="st4" d="M307.3,577.7c-1.9,0-3.6,0.4-5.3,1.1c-1.5,0.7-2.7,1.7-3.8,3.4L222.9,695h16.3l60.1-93.7V695h14V584.5
			c0-2.4-0.9-4.1-2-5.4C310.4,578.1,308.9,577.7,307.3,577.7z"/>
		<polygon class="st4" points="349.3,578 336.3,578 336.3,695 383.3,695 383.3,682 349.3,682 		"/>
		<path class="st4" d="M606.6,594.7c-5.1-5-11.3-9.3-18.5-12.1c-7.2-2.8-15.4-4.6-24.4-4.6H560c-8.8,0-17,1.7-24.2,4.5
			c-7.2,2.8-13.4,6.9-18.5,11.9c-5.1,5-9.1,11.2-11.9,18.1c-2.8,7-4.3,14.8-4.3,23.2c0,8.4,1.5,16.4,4.4,23.6
			c2.9,7.2,7,13.6,12.1,19c5.1,5.3,11.4,9.4,18.6,12.4c7.2,3,15.2,4.4,23.8,4.4h3.7c8.6,0,16.6-1.3,23.7-4.4
			c7.2-3,13.4-7.2,18.6-12.5c5.2-5.4,9.3-11.7,12.2-18.9c2.9-7.2,4.4-15.1,4.4-23.5c0-8.3-1.4-16-4.2-23
			C615.6,605.8,611.6,599.8,606.6,594.7z M605.7,655c-2.2,5.4-5.3,10.1-9.3,14.1c-4,3.9-8.8,7.2-14.4,9.5
			c-5.5,2.2-11.7,3.5-18.4,3.5H560c-6.6,0-12.7-1.3-18.2-3.4c-5.6-2.2-10.4-5.4-14.4-9.3c-4-3.9-7.1-8.7-9.4-14.1
			c-2.2-5.4-3.3-11.3-3.3-17.7c0-6.6,1.2-12.7,3.4-18.2c2.3-5.5,5.5-10.3,9.5-14.3c4-4,8.9-7.3,14.3-9.5c5.5-2.2,11.5-3.5,18-3.5
			h3.7c6.5,0,12.5,1.3,18,3.5c5.6,2.2,10.4,5.5,14.5,9.5c4,4,7.2,8.9,9.4,14.4c2.2,5.5,3.3,11.5,3.3,18
			C609,643.7,607.9,649.6,605.7,655z"/>
		<path class="st4" d="M687.1,655.8l7.5-1.1c6.8-1.1,12.5-2.9,17-5.6c4.5-2.7,8.1-5.7,10.7-9.2c2.7-3.4,4.6-7.1,5.7-11
			c1.2-4,1.8-7.9,1.8-11.7c0-6.3-1.1-11.9-3.3-16.7c-2.2-4.8-5.2-8.8-9-12c-3.8-3.2-8.4-6-13.6-7.7c-5.3-1.7-11.1-2.9-17.2-2.9
			h-41.4v117h13V592h27.9c8.9,0,16,2.3,21,6.4c5.3,4.4,7.9,10.9,7.9,19.2c0,9.1-3.4,16-10.2,20.6c-6.2,4.2-15.3,6.7-27.8,7.7
			c-8.1,0.6-9.3,3.8-9.3,7.2c0,1.1,0.3,2.3,1,3.5c0.8,1.5,2.1,3,3.8,4.8l31.9,33.6h19.4L687.1,655.8z"/>
		<path class="st4" d="M480,655.1c-0.5-2.4-1.4-4.7-2.6-6.9c-1.2-2.2-2.8-4.2-4.8-6.1c-2-1.9-4.4-3.5-7.3-4.8l-8-3.6
			c16-2.4,18.9-14.9,18.9-14.9l0,0c0.7-1.7,1.3-3.4,1.6-5.2c0.5-2.3,0.7-4.6,0.7-6.8c0-9.6-3.1-16.7-9.4-21.3
			c-6.6-4.8-16.6-7.4-29.7-7.4h-37.3v117H435c8.1,0,15.2-0.8,21-2.6c5.7-1.8,10.5-4.1,14.2-7.1c3.6-2.9,6.3-6.4,8-10.3
			c1.7-3.9,2.6-8.2,2.6-12.8C480.7,660,480.5,657.6,480,655.1z M458.5,677.1c-5.3,2.7-12.1,3.9-20.2,3.9h-22v-89h22
			c9.5,0,16.2,1.3,20.4,4c3.3,2.1,7.2,6.3,7.2,14.4c0,6.3-1.8,11-5.2,14.1c-3.4,3-8,4.5-13.8,4.5h-10.7v14H447
			c5.7,0,10.6,1.5,14.5,4.6c4.2,3.3,6.3,8.1,6.3,14.6C467.8,669,464.6,674,458.5,677.1z"/>
	</g>
	<g>
		<path class="st4" d="M338.8,541.7c-3.5,3.5-8.2,5.3-12.8,5.3c-11.8,0-18-8.3-18-17.7c-0.1-9.4,6-18.1,18-18.1
			c4.6,0,9.3,1.8,12.8,5.3L337,518c-3-3-7-4.5-10.9-4.5c-10.2,0-15.5,7.2-15.4,15.6c0.1,8.2,5.3,15.3,15.4,15.3c4,0,8-1.5,11-4.5
			L338.8,541.7z"/>
		<path class="st4" d="M347.3,511.5V544H367v2.5h-22.4v-35H347.3z"/>
		<path class="st4" d="M372.1,507.7v-0.2l3.8-6h3.3v0l-4.6,6.2H372.1z M374.8,546.6v-35h-2.7v35H374.8z"/>
		<path class="st4" d="M383.7,511.5l23.6,29v-29h2.6v35h-1l-23.6-28.9v28.9h-2.7v-35H383.7z"/>
		<path class="st4" d="M417.8,546.6v-35h2.7v35H417.8z"/>
		<path class="st4" d="M457,541.7c-3.5,3.5-8.2,5.3-12.8,5.3c-11.8,0-18-8.3-18-17.7c-0.1-9.4,6-18.1,18-18.1
			c4.6,0,9.3,1.8,12.8,5.3l-1.8,1.6c-3-3-7-4.5-10.9-4.5c-10.2,0-15.5,7.2-15.4,15.6c0.1,8.2,5.3,15.3,15.4,15.3c4,0,8-1.5,11-4.5
			L457,541.7z"/>
		<path class="st4" d="M489.6,546.6l-3.9-8.6h-20.9l-3.8,8.6h-2.9l15.7-35h3l15.7,35H489.6z M484.7,535.5l-9.4-21.3l-9.4,21.3H484.7
			z"/>
	</g>
</g>
</svg>
